<svg width="55" height="55" viewBox="0 0 55 55" fill="none" xmlns="http://www.w3.org/2000/svg">
<rect width="55" height="55" fill="white"/>
<path d="M17.75 39.5L15 36.75L28 23.75C27.6667 22.6875 27.7031 21.5729 28.1094 20.4062C28.5156 19.2396 29.1354 18.2604 29.9688 17.4688C31.0312 16.4062 32.3594 15.7135 33.9531 15.3906C35.5469 15.0677 36.8854 15.4479 37.9688 16.5312C39.0521 17.6146 39.4323 18.9531 39.1094 20.5469C38.7865 22.1406 38.0938 23.4688 37.0312 24.5312C36.2396 25.3646 35.2604 25.9844 34.0938 26.3906C32.9271 26.7969 31.8125 26.8333 30.75 26.5L30.0312 27.25L39.5312 36.75L36.75 39.5L27.25 30.0625L17.75 39.5V39.5M20.7812 28.0938L17.2188 24.5312C15.7604 23.0729 15.125 21.4688 15.3125 19.7188C15.5 17.9688 16.2917 16.3958 17.6875 15L25.7812 23.0938L20.7812 28.0938V28.0938" fill="#94A3B8" fill-opacity="0.5"/>
</svg>
