<svg width="25" height="25" viewBox="0 0 25 25" fill="none" xmlns="http://www.w3.org/2000/svg">
<path d="M2.75 24.5L0 21.75L13 8.75C12.6667 7.6875 12.7031 6.57292 13.1094 5.40625C13.5156 4.23958 14.1354 3.26042 14.9688 2.46875C16.0312 1.40625 17.3594 0.713542 18.9531 0.390625C20.5469 0.0677083 21.8854 0.447917 22.9688 1.53125C24.0521 2.61458 24.4323 3.95312 24.1094 5.54688C23.7865 7.14062 23.0938 8.46875 22.0312 9.53125C21.2396 10.3646 20.2604 10.9844 19.0938 11.3906C17.9271 11.7969 16.8125 11.8333 15.75 11.5L15.0312 12.25L24.5312 21.75L21.75 24.5L12.25 15.0625L2.75 24.5ZM5.78125 13.0938L2.21875 9.53125C0.760417 8.07292 0.125 6.46875 0.3125 4.71875C0.5 2.96875 1.29167 1.39583 2.6875 0L10.7812 8.09375L5.78125 13.0938Z" fill="#E23744"/>
</svg>
