<svg width="123" height="40" viewBox="0 0 123 40" fill="none" xmlns="http://www.w3.org/2000/svg">
<rect width="40" height="40" rx="12" fill="#EF4444"/>
<path d="M10.5 31.25L8.75 29.5L21.5625 16.6875C21.1875 15.8125 21.1354 14.8229 21.4062 13.7188C21.6771 12.6146 22.2708 11.625 23.1875 10.75C24.2917 9.64583 25.5208 9 26.875 8.8125C28.2292 8.625 29.3333 8.95833 30.1875 9.8125C31.0417 10.6667 31.375 11.7708 31.1875 13.125C31 14.4792 30.3542 15.7083 29.25 16.8125C28.375 17.7292 27.3854 18.3229 26.2812 18.5938C25.1771 18.8646 24.1875 18.8125 23.3125 18.4375L21.75 20L31.25 29.5L29.5 31.25L20 21.8125L10.5 31.25ZM14.1875 20.5625L10.4375 16.8125C9.3125 15.6875 8.75 14.3438 8.75 12.7812C8.75 11.2188 9.3125 9.875 10.4375 8.75L18.1875 16.5625L14.1875 20.5625Z" fill="white"/>
<path d="M52.825 31L60.5847 9.31H65.2094L72.9644 31H68.6013L66.8284 25.975H59.0134L57.22 31H52.825ZM60.0044 22.1481H65.7756L62.9003 13.5259L60.0044 22.1481ZM74.92 31V8.71H79.2925V21.9194L84.9963 15.49H89.7091L84.0766 21.6662L89.9078 31H85.5409L81.3512 24.3063L79.2925 26.5075V31H74.92ZM91.5972 31V15.49H95.7831V31H91.5972ZM91.555 13.2644V9.31938H95.8159V13.2644H91.555ZM105.933 31.3C104.402 31.3 103.053 30.9787 101.887 30.3362C100.722 29.6938 99.8136 28.7825 99.1633 27.6025C98.513 26.4225 98.1878 25.0288 98.1878 23.4213C98.1878 21.8694 98.4847 20.4723 99.0784 19.2302C99.6722 17.988 100.53 17.0041 101.652 16.2784C102.774 15.5528 104.127 15.19 105.712 15.19C107.293 15.19 108.619 15.5228 109.691 16.1884C110.764 16.8541 111.573 17.7787 112.119 18.9625C112.665 20.1462 112.938 21.5125 112.938 23.0612V24.2519H102.526C102.519 25.0437 102.645 25.7308 102.904 26.313C103.164 26.8952 103.542 27.345 104.038 27.6625C104.535 27.98 105.132 28.1387 105.83 28.1387C106.579 28.1387 107.235 27.9778 107.8 27.6559C108.364 27.3341 108.756 26.8075 108.977 26.0763H112.923C112.751 27.1794 112.313 28.1211 111.61 28.9014C110.907 29.6817 110.055 30.2766 109.055 30.6859C108.055 31.0953 107.015 31.3 105.933 31.3ZM102.514 21.6475H108.847C108.847 21.02 108.731 20.4481 108.498 19.9319C108.266 19.4156 107.917 19.0059 107.453 18.7028C106.989 18.3997 106.405 18.2481 105.703 18.2481C105.031 18.2481 104.457 18.4114 103.982 18.738C103.507 19.0645 103.142 19.4883 102.889 20.0092C102.636 20.5302 102.511 21.0762 102.514 21.6475ZM120.313 31.2644C119.167 31.2644 118.261 31.1298 117.593 30.8608C116.926 30.5917 116.432 30.2356 116.113 29.7925C115.793 29.3494 115.588 28.8539 115.497 28.3061C115.406 27.7583 115.36 27.2056 115.36 26.6481V8.71H119.655V26.1119C119.655 26.6787 119.777 27.1412 120.022 27.4994C120.266 27.8575 120.728 28.0744 121.405 28.15L122.133 28.1912V30.8969C121.84 30.9987 121.537 31.0855 121.225 31.157C120.912 31.2286 120.608 31.2644 120.313 31.2644Z" fill="white"/>
</svg>
