<svg width="91" height="32" viewBox="0 0 91 32" fill="none" xmlns="http://www.w3.org/2000/svg">
<path d="M2.75 28.25L0 25.5L13 12.5C12.6667 11.4375 12.7031 10.3229 13.1094 9.15625C13.5156 7.98958 14.1354 7.01042 14.9688 6.21875C16.0312 5.15625 17.3594 4.46354 18.9531 4.14062C20.5469 3.81771 21.8854 4.19792 22.9688 5.28125C24.0521 6.36458 24.4323 7.70312 24.1094 9.29688C23.7865 10.8906 23.0938 12.2188 22.0312 13.2812C21.2396 14.1146 20.2604 14.7344 19.0938 15.1406C17.9271 15.5469 16.8125 15.5833 15.75 15.25L15.0312 16L24.5312 25.5L21.75 28.25L12.25 18.8125L2.75 28.25ZM5.78125 16.8438L2.21875 13.2812C0.760417 11.8229 0.125 10.2188 0.3125 8.46875C0.5 6.71875 1.29167 5.14583 2.6875 3.75L10.7812 11.8438L5.78125 16.8438Z" fill="#E23744"/>
<path d="M44.5073 20.024H38.2193L37.2112 23H32.9153L39.0113 6.152H43.7632L49.8593 23H45.5153L44.5073 20.024ZM43.4513 16.856L41.3633 10.688L39.2993 16.856H43.4513ZM59.2912 23L55.2112 17.384V23H51.1072V5.24H55.2112V15.056L59.2672 9.608H64.3312L58.7632 16.328L64.3792 23H59.2912ZM67.4032 8.216C66.6832 8.216 66.0952 8.004 65.6392 7.58C65.1832 7.156 64.9552 6.632 64.9552 6.008C64.9552 5.368 65.1832 4.836 65.6392 4.412C66.0952 3.988 66.6832 3.776 67.4032 3.776C68.1072 3.776 68.6872 3.988 69.1432 4.412C69.5992 4.836 69.8272 5.368 69.8272 6.008C69.8272 6.632 69.5992 7.156 69.1432 7.58C68.6872 8.004 68.1072 8.216 67.4032 8.216ZM69.4432 9.608V23H65.3392V9.608H69.4432ZM84.4432 16.088C84.4432 16.472 84.4192 16.872 84.3712 17.288H75.0832C75.1472 18.12 75.4152 18.756 75.8872 19.196C76.3592 19.636 76.9392 19.856 77.6272 19.856C78.6512 19.856 79.3632 19.424 79.7632 18.56H84.1312C83.9072 19.44 83.5032 20.232 82.9192 20.936C82.3352 21.64 81.6032 22.192 80.7232 22.592C79.8432 22.992 78.8592 23.192 77.7712 23.192C76.4592 23.192 75.2912 22.912 74.2672 22.352C73.2432 21.792 72.4432 20.992 71.8672 19.952C71.2912 18.912 71.0032 17.696 71.0032 16.304C71.0032 14.912 71.2872 13.696 71.8552 12.656C72.4232 11.616 73.2192 10.816 74.2432 10.256C75.2672 9.696 76.4432 9.416 77.7712 9.416C79.0672 9.416 80.2192 9.688 81.2272 10.232C82.2352 10.776 83.0232 11.552 83.5912 12.56C84.1592 13.568 84.4432 14.744 84.4432 16.088ZM80.2432 15.008C80.2432 14.304 80.0032 13.744 79.5232 13.328C79.0432 12.912 78.4432 12.704 77.7232 12.704C77.0352 12.704 76.4552 12.904 75.9832 13.304C75.5112 13.704 75.2192 14.272 75.1072 15.008H80.2432ZM90.1073 5.24V23H86.0033V5.24H90.1073Z" fill="#E23744"/>
</svg>
